<?xml version="1.0" encoding="UTF-8" standalone="no"?>
<!DOCTYPE svg PUBLIC "-//W3C//DTD SVG 1.1//EN" "http://www.w3.org/Graphics/SVG/1.1/DTD/svg11.dtd">
<svg width="100%" height="100%" viewBox="0 0 1717 1830" version="1.1" xmlns="http://www.w3.org/2000/svg" xmlns:xlink="http://www.w3.org/1999/xlink" xml:space="preserve" xmlns:serif="http://www.serif.com/" style="fill-rule:evenodd;clip-rule:evenodd;stroke-linejoin:round;stroke-miterlimit:2;">
    <g transform="matrix(4.16667,0,0,4.16667,0,0)">
        <path d="M266.139,381.687L266.139,372.668L242.446,372.668L242.446,374.01L247.426,374.01L247.426,399.856L242.446,399.856L242.446,401.197L254.565,401.197L254.565,399.856L248.785,399.856L248.785,387.708L259.415,387.708L259.415,386.367L248.785,386.367L248.785,374.01L264.781,374.01L264.781,381.687L266.139,381.687Z" style="fill:rgb(35,31,32);fill-rule:nonzero;"/>
        <path d="M284,400.391C277.121,400.391 271.413,394.442 271.413,386.933C271.413,379.423 277.121,373.476 284,373.476C290.88,373.476 296.504,379.423 296.504,386.933C296.504,394.442 290.88,400.391 284,400.391ZM284,372.122C276.114,372.122 270.025,378.731 270.025,386.933C270.025,395.135 275.904,401.743 284,401.743C292.097,401.743 297.893,395.135 297.893,386.933C297.893,378.731 291.887,372.122 284,372.122Z" style="fill:rgb(35,31,32);fill-rule:nonzero;"/>
        <path d="M325.931,381.631L325.931,372.668L301.519,372.668L301.519,381.631L302.877,381.631L302.877,374.01L313.067,374.01L313.067,399.856L305.337,399.856L305.337,401.197L322.071,401.197L322.071,399.856L314.425,399.856L314.425,374.01L324.573,374.01L324.573,381.631L325.931,381.631Z" style="fill:rgb(35,31,32);fill-rule:nonzero;"/>
        <path d="M343.534,400.391C336.654,400.391 330.946,394.442 330.946,386.933C330.946,379.423 336.654,373.476 343.534,373.476C350.414,373.476 356.038,379.423 356.038,386.933C356.038,394.442 350.414,400.391 343.534,400.391ZM343.534,372.122C335.647,372.122 329.558,378.731 329.558,386.933C329.558,395.135 335.437,401.743 343.534,401.743C351.63,401.743 357.426,395.135 357.426,386.933C357.426,378.731 351.42,372.122 343.534,372.122Z" style="fill:rgb(35,31,32);fill-rule:nonzero;"/>
        <path d="M255.741,424.218L255.741,425.559L267.071,425.559C266.545,432.816 261.739,437.647 254.792,437.647C247.756,437.647 242.381,431.592 242.381,424.273C242.381,416.829 247.75,410.732 254.786,410.732C258.976,410.732 262.968,412.887 265.641,416.655L266.721,415.829C263.833,411.737 259.354,409.379 254.75,409.379C247.013,409.379 240.994,416.075 240.994,424.273C240.994,432.346 247.013,439 254.75,439C262.96,439 268.495,433.019 268.495,424.218L255.741,424.218Z" style="fill:rgb(35,31,32);fill-rule:nonzero;"/>
        <path d="M276.355,411.267L285.691,411.267C289.424,411.267 292.816,414.213 292.816,417.952C292.816,421.722 289.835,424.752 286.061,424.752L276.355,424.752L276.355,411.267ZM285.654,426.093L286.061,426.093C290.551,426.093 294.18,422.389 294.18,417.952C294.18,413.546 290.217,409.925 285.733,409.925L269.992,409.925L269.992,411.267L274.997,411.267L274.997,437.113L269.992,437.113L269.992,438.454L282.237,438.454L282.237,437.113L276.355,437.113L276.355,426.093L284.042,426.093L292.519,438.454L296.831,438.454L296.831,437.113L293.204,437.113L285.654,426.093Z" style="fill:rgb(35,31,32);fill-rule:nonzero;"/>
        <path d="M308.614,427.306L314.825,411.29L321.033,427.306L308.614,427.306ZM315.697,409.925L313.944,409.925L303.366,437.113L299.482,437.113L299.482,438.454L310.961,438.454L310.961,437.113L304.812,437.113L308.1,428.632L321.547,428.632L324.835,437.113L318.685,437.113L318.685,438.454L330.165,438.454L330.165,437.113L326.281,437.113L315.697,409.925Z" style="fill:rgb(35,31,32);fill-rule:nonzero;"/>
        <path d="M357.254,409.925L333.561,409.925L333.561,411.267L338.542,411.267L338.542,437.113L333.561,437.113L333.561,438.454L345.68,438.454L345.68,437.113L339.9,437.113L339.9,424.965L350.531,424.965L350.531,423.624L339.9,423.624L339.9,411.267L355.896,411.267L355.896,418.944L357.254,418.944L357.254,409.925Z" style="fill:rgb(35,31,32);fill-rule:nonzero;"/>
        <path d="M382.329,409.925L363.636,409.925L363.636,411.267L372.303,411.267L372.303,437.113L363.636,437.113L363.636,438.454L382.329,438.454L382.329,437.113L373.662,437.113L373.662,411.267L382.329,411.267L382.329,409.925Z" style="fill:rgb(35,31,32);fill-rule:nonzero;"/>
        <path d="M411.438,409.925L387.955,409.925L387.955,411.267L392.725,411.267L392.725,437.113L387.975,437.113L387.975,438.454L411.438,438.454L411.438,429.491L410.08,429.491L410.08,437.113L394.083,437.113L394.083,424.965L403.102,424.965L403.102,423.624L394.083,423.624L394.083,411.267L410.08,411.267L410.08,418.888L411.438,418.888L411.438,409.925Z" style="fill:rgb(35,31,32);fill-rule:nonzero;"/>
        <path d="M313.433,107.726C313.433,130.525 296.466,151.734 267.834,151.734L224.345,151.734L224.342,62.128L268.364,62.128C296.996,62.128 313.433,83.337 313.433,107.726ZM220.542,218.821L306.618,336.778L396.764,336.778L304.772,211.05C354.786,200.038 389.784,156.892 389.784,106.665C389.784,47.282 341.003,0.623 280.56,0.623L147.99,0.623L147.99,152.034L6.661,152.034L6.661,217.78L131.059,217.78L0,376.957L0,438.461L227.766,438.461L227.766,372.715L93.832,372.715L220.542,218.821Z" style="fill:rgb(35,31,32);fill-rule:nonzero;"/>
    </g>
</svg>
